<svg xmlns:cc="http://creativecommons.org/ns#" xmlns:rdf="http://www.w3.org/1999/02/22-rdf-syntax-ns#" xmlns:svg="http://www.w3.org/2000/svg" xmlns="http://www.w3.org/2000/svg"  version="1.1" x="0px" y="0px" viewBox="0 0 128 160" enable-background="new 0 0 128 128" xml:space="preserve"><path style="" d="M 74 2.5 C 67.7 2.5 62.5 7.7 62.5 14 L 62.5 114 C 62.5 120.3 67.7 125.5 74 125.5 L 114 125.5 C 120.3 125.5 125.5 120.3 125.5 114 L 125.5 14 C 125.5 7.7 120.3 2.5 114 2.5 L 74 2.5 z M 74 5.5 L 114 5.5 C 118.2 5.5 121.60039 8.5 122.40039 12.5 L 65.599609 12.5 C 66.399609 8.5 69.8 5.5 74 5.5 z M 89 7.5 C 88.2 7.5 87.5 8.2 87.5 9 C 87.5 9.8 88.2 10.5 89 10.5 L 99 10.5 C 99.8 10.5 100.5 9.8 100.5 9 C 100.5 8.2 99.8 7.5 99 7.5 L 89 7.5 z M 65.5 15.5 L 122.5 15.5 L 122.5 107.5 L 65.5 107.5 L 65.5 15.5 z M 14 62.5 C 7.7 62.5 2.5 67.7 2.5 74 L 2.5 114 C 2.5 120.3 7.7 125.5 14 125.5 L 64.400391 125.5 C 63.300391 124.6 62.399219 123.6 61.699219 122.5 L 15.5 122.5 L 15.5 65.5 L 59 65.5 L 59 62.5 L 14 62.5 z M 12.5 65.599609 L 12.5 122.30078 C 8.5 121.60078 5.5 118.2 5.5 114 L 5.5 74 C 5.5 69.8 8.5 66.399609 12.5 65.599609 z M 9 87.5 C 8.2 87.5 7.5 88.2 7.5 89 L 7.5 99 C 7.5 99.8 8.2 100.5 9 100.5 C 9.8 100.5 10.5 99.8 10.5 99 L 10.5 89 C 10.5 88.2 9.8 87.5 9 87.5 z M 65.5 110.5 L 122.5 110.5 L 122.5 114 C 122.5 118.7 118.7 122.5 114 122.5 L 74 122.5 C 69.3 122.5 65.5 118.7 65.5 114 L 65.5 110.5 z M 94 111.5 C 91.2 111.5 89 113.7 89 116.5 C 89 119.3 91.2 121.5 94 121.5 C 96.8 121.5 99 119.3 99 116.5 C 99 113.7 96.8 111.5 94 111.5 z M 94 114.5 C 95.1 114.5 96 115.4 96 116.5 C 96 117.6 95.1 118.5 94 118.5 C 92.9 118.5 92 117.6 92 116.5 C 92 115.4 92.9 114.5 94 114.5 z " fill="#000000"/></svg>